<?xml version="1.0" encoding="utf-8"?>
<!-- Generator: Adobe Illustrator 16.0.0, SVG Export Plug-In . SVG Version: 6.00 Build 0)  -->
<!DOCTYPE svg PUBLIC "-//W3C//DTD SVG 1.1//EN" "http://www.w3.org/Graphics/SVG/1.1/DTD/svg11.dtd">
<svg version="1.1" id="Calque_1" xmlns="http://www.w3.org/2000/svg" xmlns:xlink="http://www.w3.org/1999/xlink" x="0px" y="0px"
	 width="841.89px" height="595.28px" viewBox="0 0 841.89 595.28" enable-background="new 0 0 841.89 595.28" xml:space="preserve">
<path fill="#C6C6C6" stroke="#FFFFFF" stroke-width="4" stroke-miterlimit="10" d="M379.2,404.745l11.722-17.347
	c-18.528-10.464-30.514-19.452-30.514-19.452l-11.744,4.032l-13.311-11.862l-13.31,5.48l-66.867-66.866
	c-1.002,1.31-1.931,2.479-2.818,3.445c-8.613,9.396-1.566,12.527-19.574,25.839c-15.757,11.646-73.475,96.425-87.66,117.439
	c10.288-0.817,21.007-4.471,21.007-4.471l9.396,8.352l-9.396,10.44V481.7h19.836c0,0,16.704-19.314,19.836-23.49
	c3.132-4.177,3.132-3.654,6.264-3.654c3.132,0,44.893,30.276,80.389,41.238c1.582,0.488,3.281,1.021,5.081,1.595l77.396-96.078
	L379.2,404.745z"/>
<path fill="#C6C6C6" stroke="#FFFFFF" stroke-width="4" stroke-miterlimit="10" d="M468.373,527.637
	c-16.182-23.49-12.527-36.019-12.527-52.723c0-13.269,2.305-44.979,3.253-57.462c-14.376-4.763-18.042-6.151-39.967-15.839
	c-10.384-4.588-19.947-9.548-28.209-14.215L379.2,404.745l-4.266-3.435l-77.396,96.078c38.604,12.278,124.376,42.776,124.376,42.776
	l-2.087,5.742c0,0,6.787,2.609,20.88,3.132c14.094,0.521,25.057,3.538,25.057,3.538c0.289-0.257,0.588-0.458,0.895-0.62l1.715-2.918
	V527.637z"/>
<path fill="#C6C6C6" stroke="#FFFFFF" stroke-width="4" stroke-miterlimit="10" d="M549.889,379.69c0,0-9.396,29.753-14.878,30.428
	c-5.48,0.675-39.148,19.683-39.148,19.683c-18.296-6.281-29.063-9.799-36.764-12.349c-0.948,12.483-3.253,44.193-3.253,57.462
	c0,16.704-3.654,29.232,12.527,52.723v21.402l-1.715,2.918c3.572-1.886,8.227,2.168,11.111,0.62
	c7.83-6.381,14.616-10.324,22.446-10.847c7.83-0.521,12.528,9.919,12.528,9.919s27.666,2.088,32.364,0
	c4.698-2.089,56.899-26.101,64.729-33.931s28.71-17.227,34.975-20.358c0.796-0.398,1.566-0.891,2.324-1.447
	C607.137,444.089,577.058,415.16,549.889,379.69z"/>
<path fill="#C6C6C6" stroke="#FFFFFF" stroke-width="4" stroke-miterlimit="10" d="M491.948,338.192
	c-7.314-2.992-15.05-7.538-22.071-12.498l-31.764,84.136c13.889,5.734,18.562,6.519,57.749,19.971c0,0,33.668-19.008,39.148-19.683
	c5.481-0.675,14.878-30.428,14.878-30.428C521.701,342.891,509.174,345.239,491.948,338.192z"/>
<path fill="#C6C6C6" stroke="#FFFFFF" stroke-width="4" stroke-miterlimit="10" d="M408.343,338.564l16.952-36.957l-4.946-2.654
	l3.065-6.121c-6.504-2.229-13.446-4.441-19.942-7.099c-17.226-7.047-32.885-16.442-41.498-17.596
	c-8.613-1.154-20.357-1.195-42.28,0.371c-41.44-3.512-55.786,18.807-64.518,30.222l66.867,66.866l13.31-5.48l13.311,11.862
	l11.744-4.032c0,0,0.413,0.309,1.199,0.877l37.861-27.021L408.343,338.564z"/>
<path fill="#C6C6C6" stroke="#FFFFFF" stroke-width="4" stroke-miterlimit="10" d="M448.102,306.091
	c-4.39-5.852-13.943-9.578-24.688-13.259l-3.065,6.121l4.946,2.654l-16.952,36.957l-8.875,3.237l-37.861,27.021
	c5.357,3.87,28.165,19.817,57.524,32.79c8.519,3.765,14.278,6.274,18.982,8.217l31.764-84.136
	C460.361,318.975,452.156,311.497,448.102,306.091z"/>
<path fill="#C6C6C6" stroke="#FFFFFF" stroke-width="4" stroke-miterlimit="10" d="M297.538,259.846c0,0-9.165-32.044-21.252-53.312
	l-0.438,0.903l-59.762-28.272c-13.28,19.201-62.501,100.047-67.181,113.046c-4.698,13.05-45.937,99.704-45.937,99.704l2.61,25.579
	l15.661,21.924c0,0,0,0,10.962,4.698c3.473,1.488,8.152,1.718,12.924,1.339c14.185-21.015,71.903-105.793,87.66-117.439
	c18.008-13.312,10.961-16.442,19.574-25.839c7.38-8.051,17.639-29.9,49.495-33.523v-6.718L297.538,259.846z"/>
<path fill="#C6C6C6" stroke="#FFFFFF" stroke-width="4" stroke-miterlimit="10" d="M288.375,181.598c0,0,30.536-9.396,48.544-14.093
	c14.775-3.854,47.993-8.764,65.068-16.889c-0.473-5.679-2.156-11.606-5.65-23.36l15.859-81.913
	c-8.988,0.354-31.198-1.458-37.262,3.09c-6.264,4.698-48.547,23.491-53.245,28.188c-4.698,4.698-10.44,6.786-19.314,14.616
	c-8.874,7.831-28.188,20.88-39.151,24.535c-10.962,3.654-42.283,33.409-43.327,37.062c-1.044,3.654-3.654,26.101-3.654,26.101
	c-0.051,0.072-0.106,0.155-0.158,0.229l59.762,28.272l0.438-0.903l0,0L288.375,181.598z"/>
<polygon fill="#C6C6C6" stroke="#FFFFFF" stroke-width="4" stroke-miterlimit="10" points="276.285,206.534 276.285,206.534 
	288.375,181.598 "/>
<polygon fill="#C6C6C6" stroke="#FFFFFF" stroke-width="4" stroke-miterlimit="10" points="276.285,206.534 276.285,206.534 
	288.375,181.598 "/>
<path fill="#C6C6C6" stroke="#FFFFFF" stroke-width="4" stroke-miterlimit="10" d="M396.336,233.224c0,0,4.698-20.979,4.698-26.933
	c0-5.953-0.857-30.938,0.522-43.538c0.54-4.932,0.734-8.483,0.43-12.136c-17.075,8.125-50.292,13.034-65.068,16.889
	c-18.008,4.698-48.544,14.093-48.544,14.093l-12.09,24.936c12.088,21.269,21.252,53.312,21.252,53.312l4.315,2.088v6.718
	c5.317-0.605,11.233-0.704,17.841-0.144c21.923-1.566,33.667-1.524,42.28-0.371c3.654,0.489,8.581,2.465,14.354,5.113l22.368-40.701
	L396.336,233.224z"/>
<path fill="#C6C6C6" stroke="#FFFFFF" stroke-width="4" stroke-miterlimit="10" d="M682.21,364.031
	c-0.006-0.098-0.013-0.19-0.02-0.287c-9.242-1.428-21.12-3.502-29.026-5.76c-14.616-4.177-32.364-9.396-36.019-10.44
	c-3.653-1.044-11.484,2.088-28.71-5.742c-12.98-5.9-20.03-8.243-22.719-9.039l-11.734,35.14l-8.77,5.866
	c1.511,1.854,3.066,3.821,4.676,5.922c27.169,35.47,57.248,64.398,97.248,116.223c5.201-3.824,9.766-10.758,17.512-12.125
	c8.874-1.566,22.969-7.83,27.667-11.484c4.697-3.654,11.483-14.616,18.792-17.748c21.402-5.742,24.534-16.704,25.578-23.49
	s1.566-18.271,1.566-18.271h3.132c0,0,3.948-25.011,6.237-40.816L682.21,364.031z"/>
<path fill="#C6C6C6" stroke="#FFFFFF" stroke-width="4" stroke-miterlimit="10" d="M539.264,308.915
	c7.884,3.311,16.595,5.23,22.564,6.266c-2.279-15.322-5.235-35.744-5.235-38.63c0-4.698-10.962-30.276-10.962-30.276l-38.481-11.693
	c-3.771,10.258-10.515,28.469-16.627,44.341c7.195,1.947,16.469,5.044,21.699,9.112
	C521.618,295.343,525.589,303.173,539.264,308.915z"/>
<path fill="#C6C6C6" stroke="#FFFFFF" stroke-width="4" stroke-miterlimit="10" d="M561.828,315.181
	c-5.97-1.035-14.681-2.955-22.564-6.266c-13.675-5.742-17.646-13.572-27.042-20.88c-5.23-4.068-14.504-7.166-21.699-9.112
	c-5.391,13.995-10.29,26.17-12.231,29.471c-3.716,6.316-7.165,13.424-8.846,16.997c7.136,5.078,15.039,9.748,22.503,12.802
	c16.241,6.645,28.31,4.941,53.265,35.576l8.77-5.866l11.734-35.14c-0.88-0.262-1.294-0.357-1.294-0.357
	S563.259,324.797,561.828,315.181z"/>
<path fill="#C6C6C6" stroke="#FFFFFF" stroke-width="4" stroke-miterlimit="10" d="M405.242,230.679l-6.546,1.871l-22.368,40.701
	c7.833,3.593,17.227,8.426,27.144,12.482c17.226,7.047,37.583,10.962,44.629,20.357c3.993,5.324,12.012,12.66,21.344,19.3
	c1.681-3.573,5.13-10.681,8.846-16.997c2.312-3.932,8.826-20.464,15.363-37.66c-19.729-7.017-74.146-26.406-77.913-28.113
	C412.868,241.318,408.285,235.143,405.242,230.679z"/>
<path fill="#C6C6C6" stroke="#FFFFFF" stroke-width="4" stroke-miterlimit="10" d="M451.147,217.563l-45.905,13.116
	c3.043,4.463,7.625,10.639,10.499,11.941c3.767,1.707,58.185,21.096,77.913,28.113c5.172-13.605,10.36-27.626,13.495-36.152
	L451.147,217.563z"/>
<path fill="#C6C6C6" stroke="#FFFFFF" stroke-width="4" stroke-miterlimit="10" d="M490.522,173.193
	c-0.787-3.887-0.598-15.005-0.341-22.887c-13.336,1.634-35.858,10.92-44.43,7.803c-8.612-3.131-35.233-13.311-35.233-13.311
	c-1.827,2.109-4.795,4.04-8.532,5.818c0.304,3.653,0.109,7.204-0.43,12.136c-1.38,12.6-0.522,37.585-0.522,43.538
	c0,5.954-4.698,26.933-4.698,26.933l54.811-15.66l31.925,9.701l3.218-27.449C486.29,199.815,491.79,179.457,490.522,173.193z"/>
<path fill="#C6C6C6" stroke="#FFFFFF" stroke-width="4" stroke-miterlimit="10" d="M745.56,333.449
	c-3.132-18.792-5.742-70.993-4.176-82.999c1.566-12.006,0-25.579-4.176-43.849c-1.966-8.599-5.318-16.618-8.317-22.7
	c-10.02,4.257-24.494,10.181-34.487,13.304c-16.705,5.22-38.106,3.132-43.849,2.61c-5.742-0.522-13.051,4.698-17.227,6.475
	s-16.704,8.141-26.101,11.273c-1.842,0.614-5.574,2.153-10.376,4.227c10.825,14.536,21.823,29.13,26.636,34.974
	c10.962,13.311,19.574,34.451,20.357,45.412c0,0,8.613,4.698,16.442,9.396c7.83,4.697,7.83,12.527,13.311,23.488
	c5.438,10.876,7.792,16.361,8.593,28.684c7.846,1.213,13.792,1.96,13.792,1.96s-5.946-0.747-13.792-1.96
	c0.007,0.097,0.014,0.189,0.02,0.287l65.411,7.947c0.935-6.45,1.593-11.37,1.593-12.429
	C749.214,355.896,748.692,352.242,745.56,333.449z"/>
<path fill="#C6C6C6" stroke="#FFFFFF" stroke-width="4" stroke-miterlimit="10" d="M660.287,311.572
	c-7.829-4.698-16.442-9.396-16.442-9.396c-0.783-10.961-9.396-32.102-20.357-45.412c-4.812-5.843-15.811-20.438-26.636-34.974
	c-15.543,6.712-42.342,19.048-52.96,23.955l1.739,0.529c0,0,10.962,25.579,10.962,30.276c0,4.698,7.83,55.855,7.83,55.855
	s6.786,1.566,24.013,9.396c17.226,7.83,25.057,4.698,28.71,5.742c3.654,1.044,21.402,6.264,36.019,10.44
	c7.906,2.258,19.784,4.332,29.026,5.76c-0.801-12.322-3.154-17.808-8.593-28.684C668.117,324.1,668.117,316.27,660.287,311.572z"/>
<path fill="#C6C6C6" stroke="#FFFFFF" stroke-width="4" stroke-miterlimit="10" d="M569.463,184.73c0,0,0.782-20.357,0-27.404
	c-0.783-7.047-7.048-8.613-7.048-8.613c-30.535-6.264-58.723,0-72.033,1.566c-0.065,0.008-0.134,0.019-0.2,0.026
	c-0.257,7.882-0.446,19,0.341,22.887c1.268,6.264-4.232,26.623-4.232,26.623l-3.218,27.449l60.819,18.48
	c10.618-4.907,37.417-17.243,52.96-23.955C583.017,203.212,569.463,184.73,569.463,184.73z"/>
<path fill="#C6C6C6" stroke="#FFFFFF" stroke-width="4" stroke-miterlimit="10" d="M490.182,150.306L490.182,150.306
	c0.066-0.008,0.135-0.019,0.2-0.026C490.316,150.287,490.248,150.298,490.182,150.306z"/>
<path fill="#C6C6C6" stroke="#FFFFFF" stroke-width="4" stroke-miterlimit="10" d="M490.182,150.306L490.182,150.306
	c0.066-0.008,0.135-0.019,0.2-0.026C490.316,150.287,490.248,150.298,490.182,150.306z"/>
<path fill="#C6C6C6" stroke="#FFFFFF" stroke-width="4" stroke-miterlimit="10" d="M570.165,89.411
	c3.654-4.698,7.83-7.047,7.83-7.047l-6.525-8.874c0,0-0.521-19.314-0.521-20.097c0-0.783-3.915-5.22-2.088-6.525
	c1.069-0.764,2.046-2.695,2.57-5.105c-61.855,1.277-152.905,3.196-158.39,3.539c-0.266,0.017-0.549,0.031-0.845,0.042
	l-15.859,81.913c3.495,11.754,5.177,17.681,5.65,23.36c3.736-1.778,6.705-3.709,8.532-5.818c0,0,26.621,10.179,35.233,13.311
	c8.571,3.117,31.094-6.169,44.43-7.803c0.066-0.008,0.135-0.019,0.2-0.026c11.205-1.318,32.954-5.964,57.771-3.665
	c3.394-4.739,8.938-13.435,11.05-22.229C562.335,111.335,566.511,94.108,570.165,89.411z"/>
<path fill="#C6C6C6" stroke="#FFFFFF" stroke-width="4" stroke-miterlimit="10" d="M722.592,172.671c0,0-9.919-2.61-15.139-4.176
	s-7.83-2.61-12.006-7.83c-4.177-5.22-13.051-16.182-13.051-16.182s3.133-13.05,2.61-17.227c-0.521-4.176-3.654-26.622-5.742-36.541
	c-2.088-9.918-6.786-23.49-15.138-33.408c-8.353-9.918-29.232-13.572-32.887-14.094s-3.132-2.61-3.132-2.61
	s-24.354,0.492-56.678,1.159c-0.524,2.41-1.501,4.341-2.57,5.105c-1.827,1.305,2.088,5.742,2.088,6.525
	c0,0.783,0.521,20.097,0.521,20.097l6.525,8.874c0,0-4.176,2.349-7.83,7.047c-3.654,4.698-7.83,21.924-10.962,34.975
	c-2.111,8.795-7.656,17.49-11.05,22.229c4.662,0.432,9.433,1.108,14.262,2.099c0,0,6.265,1.566,7.048,8.613
	c0.782,7.046,0,27.404,0,27.404s13.554,18.482,27.389,37.06c4.802-2.074,8.534-3.613,10.376-4.227
	c9.396-3.132,21.925-9.496,26.101-11.273s11.484-6.998,17.227-6.475c5.742,0.522,27.144,2.61,43.849-2.61
	c9.993-3.123,24.468-9.047,34.487-13.304C725.518,177.061,722.592,172.671,722.592,172.671z"/>
</svg>
